<?xml version="1.0" standalone="no"?>
<!DOCTYPE svg PUBLIC "-//W3C//DTD SVG 20010904//EN"
 "http://www.w3.org/TR/2001/REC-SVG-20010904/DTD/svg10.dtd">
<svg version="1.0" xmlns="http://www.w3.org/2000/svg"
 width="200.000000pt" height="200.000000pt" viewBox="0 0 200.000000 200.000000"
 preserveAspectRatio="xMidYMid meet">

<g transform="translate(0.000000,200.000000) scale(0.100000,-0.100000)"
fill="#000000" stroke="none">
<path d="M1532 1263 c-44 -18 -32 -93 16 -93 51 0 71 50 34 83 -19 17 -28 19
-50 10z"/>
<path d="M0 1000 l0 -259 120 69 c66 39 123 70 128 70 4 0 58 -29 120 -65 61
-36 114 -65 117 -65 3 0 5 76 5 169 l0 169 -121 70 -121 69 -77 -43 -76 -44
-3 60 -3 60 -44 0 -45 0 0 -260z m333 81 l77 -45 0 -74 0 -73 -57 32 c-32 18
-69 39 -83 47 -23 13 -30 11 -102 -32 l-78 -46 0 74 0 74 78 46 c42 25 79 44
82 43 3 -1 40 -22 83 -46z"/>
<path d="M695 1000 l0 -260 103 0 c141 0 192 22 233 102 25 49 25 130 -1 182
-28 59 -86 93 -171 102 l-69 7 0 63 0 64 -47 0 -48 0 0 -260z m236 11 c24 -24
29 -38 29 -76 0 -25 -5 -55 -11 -67 -14 -26 -68 -48 -118 -48 l-40 0 -3 110
-3 110 58 0 c51 0 62 -4 88 -29z"/>
<path d="M1660 1000 l0 -260 45 0 45 0 0 260 0 260 -45 0 -45 0 0 -260z"/>
<path d="M1810 1055 c0 -220 3 -237 53 -283 14 -13 43 -26 66 -29 l41 -6 0 41
c0 36 -3 42 -25 48 -38 9 -45 32 -45 148 l0 106 50 0 50 0 0 45 0 45 -50 0
-50 0 0 45 0 45 -45 0 -45 0 0 -205z"/>
<path d="M1097 1123 c-4 -3 -7 -60 -7 -125 0 -99 3 -125 20 -157 67 -132 253
-132 320 0 18 34 20 55 18 162 l-3 122 -42 3 -43 3 0 -125 c0 -117 -1 -127
-24 -153 -34 -39 -98 -39 -132 0 -23 26 -24 36 -24 153 l0 124 -38 0 c-21 0
-42 -3 -45 -7z"/>
<path d="M1510 936 l0 -196 45 0 45 0 -2 193 -3 192 -42 3 -43 3 0 -195z"/>
</g>
</svg>
