<?xml version="1.0" standalone="no"?>
<!DOCTYPE svg PUBLIC "-//W3C//DTD SVG 20010904//EN"
 "http://www.w3.org/TR/2001/REC-SVG-20010904/DTD/svg10.dtd">
<svg version="1.0" xmlns="http://www.w3.org/2000/svg"
 width="322.000000pt" height="172.000000pt" viewBox="0 0 322.000000 172.000000"
 preserveAspectRatio="xMidYMid meet">

<g transform="translate(0.000000,172.000000) scale(0.100000,-0.100000)"
fill="#000000" stroke="none">
<path d="M2938 1655 c4 -31 2 -35 -19 -35 -35 0 -53 15 -46 39 6 26 -1 27 -19
4 -14 -19 -19 -150 -6 -169 4 -6 17 -16 30 -23 22 -12 22 -11 22 64 0 70 1 75
22 75 29 0 88 22 88 33 0 10 -22 31 -35 34 -6 1 -17 4 -26 8 -12 5 -14 -1 -11
-30z"/>
<path d="M1347 1573 c-4 -3 -7 -17 -7 -31 0 -18 -4 -23 -16 -18 -9 3 -19 6
-24 6 -5 0 -10 8 -12 18 -3 12 -10 5 -22 -23 -14 -33 -16 -59 -11 -155 9 -179
9 -480 0 -534 -6 -38 -17 -57 -47 -87 -22 -21 -43 -38 -46 -37 -4 1 -26 -8
-49 -20 -24 -12 -43 -20 -43 -16 0 4 -7 0 -17 -7 -9 -8 -18 -13 -20 -11 -1 1
-4 2 -5 1 -8 -2 -37 -9 -62 -14 -16 -3 -39 -11 -50 -17 -12 -6 -22 -11 -23
-10 -2 1 -4 2 -5 1 -3 -1 -79 -8 -120 -10 -16 -1 -28 -5 -28 -9 0 -16 48 -50
71 -50 36 0 386 98 430 120 45 23 89 74 90 103 0 12 0 183 -1 380 0 333 1 358
17 363 10 3 29 10 43 16 l25 10 -24 19 c-25 20 -34 23 -44 12z"/>
<path d="M2368 1575 c-2 -2 -18 -5 -36 -7 -18 -1 -32 -5 -32 -9 0 -13 -89 -41
-130 -41 -23 0 -102 -28 -130 -45 -57 -37 -100 -101 -119 -178 -13 -52 -7
-261 8 -300 14 -35 59 -95 69 -94 4 1 9 0 12 -1 3 -1 12 -3 20 -5 8 -1 27 -6
41 -10 16 -4 30 -2 33 4 5 7 -4 11 -23 11 -88 0 -140 156 -112 337 21 133 52
176 163 230 26 13 56 23 67 23 10 0 53 11 95 25 97 32 176 33 223 4 34 -21 35
-21 22 -2 -19 31 -59 51 -115 57 -28 3 -53 3 -56 1z"/>
<path d="M2400 1421 c29 -8 38 -45 39 -152 1 -109 -5 -126 -63 -162 -44 -28
-73 -39 -171 -64 -11 -3 -46 -5 -77 -5 -59 0 -69 -6 -43 -28 21 -18 101 -6
236 36 63 20 126 38 140 41 l26 5 2 149 c3 179 -1 189 -67 188 -36 -1 -41 -3
-22 -8z"/>
<path d="M2868 1397 c-19 -15 -48 -89 -48 -124 0 -12 -8 -24 -18 -27 -21 -7
-82 -59 -82 -70 0 -4 9 -4 20 -1 15 5 22 0 30 -20 15 -39 12 -52 -10 -58 -26
-7 -16 -37 12 -37 18 0 20 6 16 57 -3 51 -1 58 17 61 11 3 23 9 26 15 4 5 21
10 38 11 l31 1 0 61 0 61 38 6 c21 4 46 13 56 20 17 13 17 14 1 30 -9 9 -25
17 -36 17 -14 0 -19 -7 -19 -30 0 -23 -5 -30 -19 -30 -47 0 -67 30 -39 58 16
16 8 15 -14 -1z"/>
<path d="M650 1348 c0 -29 20 -37 50 -18 12 8 12 11 -3 28 -26 28 -47 24 -47
-10z"/>
<path d="M583 1358 c-29 -46 -33 -68 -33 -179 0 -73 4 -120 11 -124 7 -5 10
-79 8 -234 -4 -224 -3 -227 21 -275 29 -57 60 -83 110 -92 l35 -6 -32 21 c-24
15 -37 34 -50 78 -16 51 -18 100 -18 415 l0 357 -24 6 c-17 4 -22 11 -18 25 6
23 2 26 -10 8z"/>
<path d="M3008 1305 c-3 -14 -1 -25 3 -25 5 0 10 -12 10 -27 1 -17 3 -21 6
-10 2 9 12 17 22 17 25 0 32 10 18 24 -54 49 -54 49 -59 21z"/>
<path d="M716 1283 c-6 -14 -5 -15 5 -6 7 7 10 15 7 18 -3 3 -9 -2 -12 -12z"/>
<path d="M1643 1180 c-21 -9 -23 -16 -23 -92 0 -91 6 -106 38 -113 21 -4 22 0
22 71 l0 74 30 0 c45 0 78 19 73 41 -3 10 -8 19 -12 20 -3 0 -16 2 -28 5 -20
3 -23 0 -23 -26 0 -27 -3 -30 -30 -30 -34 0 -49 22 -30 45 14 17 13 17 -17 5z"/>
<path d="M2573 1163 c-7 -15 -7 -21 -1 -17 6 4 14 1 18 -6 5 -8 13 -9 21 -4
12 7 10 13 -7 29 l-21 21 -10 -23z"/>
<path d="M102 1154 c-12 -8 -22 -23 -22 -33 0 -10 -7 -24 -15 -31 -12 -10 -15
-41 -15 -160 0 -119 3 -150 15 -160 12 -10 15 -48 15 -221 0 -142 -4 -210 -11
-215 -15 -9 -4 -90 21 -158 22 -56 68 -109 113 -125 46 -18 47 -13 7 26 -62
63 -69 115 -70 531 0 194 2 382 6 416 l7 64 37 6 c48 7 67 28 46 49 -16 15
-84 32 -94 23 -3 -3 3 -6 14 -6 14 0 20 -8 21 -30 2 -26 -1 -30 -22 -30 -54 0
-68 19 -38 52 20 22 15 23 -15 2z"/>
<path d="M3058 1118 c-32 -9 -38 -14 -37 -36 2 -25 2 -25 6 -4 3 16 14 25 34
29 16 3 32 10 35 14 3 5 4 9 2 8 -2 -1 -20 -6 -40 -11z"/>
<path d="M2052 1100 c0 -14 2 -19 5 -12 2 6 2 18 0 25 -3 6 -5 1 -5 -13z"/>
<path d="M2821 1064 l-23 -12 21 -11 c19 -11 21 -20 21 -111 0 -55 -4 -100 -9
-100 -13 0 14 -130 36 -169 21 -40 49 -71 63 -71 6 0 10 -5 10 -11 0 -5 4 -8
9 -4 5 3 12 1 15 -3 3 -5 45 -9 93 -9 49 0 66 2 38 4 -73 5 -90 10 -124 39
-51 43 -71 127 -71 303 0 100 4 151 12 159 9 9 4 9 -22 2 -19 -5 -36 -6 -39
-2 -4 5 -17 3 -30 -4z"/>
<path d="M251 1047 c-13 -21 -12 -21 5 -5 10 10 16 20 13 22 -3 3 -11 -5 -18
-17z"/>
<path d="M2409 969 c-7 -4 -3 -10 11 -14 22 -7 23 -9 16 -114 -7 -106 -7 -106
-45 -144 -20 -21 -44 -39 -53 -40 -8 -2 -28 -11 -43 -21 -15 -10 -35 -20 -44
-21 -9 -2 -16 -4 -16 -5 0 -1 -11 -3 -25 -6 -14 -2 -32 -7 -40 -11 -8 -3 -18
-7 -22 -8 -5 -2 -10 -4 -13 -5 -3 -1 -8 -3 -12 -4 -5 -1 -19 -6 -32 -10 l-23
-8 23 -12 c13 -7 26 -10 29 -6 3 3 50 19 105 35 123 36 206 76 241 117 25 31
26 34 22 159 l-3 127 -33 -1 c-18 -1 -37 -4 -43 -8z"/>
<path d="M1698 913 c17 -3 22 -11 22 -34 0 -28 -2 -30 -32 -27 -28 2 -34 8
-36 31 -3 22 -6 25 -16 14 -13 -12 -23 -45 -33 -105 -3 -18 -14 -37 -24 -43
-11 -5 -19 -7 -19 -4 0 2 -14 -10 -31 -28 -27 -28 -29 -32 -13 -35 45 -8 59
-68 19 -78 -21 -5 -23 -9 -14 -25 5 -10 18 -19 29 -19 10 0 31 -5 45 -12 24
-11 25 -14 24 -102 0 -50 -4 -99 -8 -110 -6 -16 9 -103 26 -146 3 -8 7 -21 9
-28 3 -18 48 -58 87 -79 34 -18 153 -26 197 -13 15 4 -4 7 -51 6 -95 -1 -137
23 -171 99 -21 46 -23 65 -23 227 l0 176 -56 -4 -56 -4 -6 52 c-5 52 4 72 28
64 6 -1 15 4 21 12 5 7 22 15 37 15 29 2 31 9 27 90 -1 33 1 37 23 37 29 0 87
19 87 28 -1 23 -32 42 -71 46 -24 2 -34 2 -21 -1z"/>
<path d="M1790 830 c-1 -8 -3 -23 -5 -33 -2 -9 1 -15 6 -11 5 3 9 -7 9 -23 1
-24 2 -25 11 -10 5 9 19 17 30 17 19 0 19 1 2 24 -10 13 -21 22 -25 20 -4 -3
-11 4 -17 13 -8 14 -11 15 -11 3z"/>
<path d="M3025 740 c14 -45 26 -53 73 -46 58 8 67 14 47 36 -12 14 -26 17 -57
14 -24 -3 -46 0 -55 8 -14 11 -15 10 -8 -12z"/>
<path d="M1800 611 c0 -5 9 -7 20 -4 11 3 20 7 20 9 0 2 -9 4 -20 4 -11 0 -20
-4 -20 -9z"/>
<path d="M3155 570 c-8 -13 5 -13 25 0 13 8 13 10 -2 10 -9 0 -20 -4 -23 -10z"/>
<path d="M2338 503 c7 -3 16 -2 19 1 4 3 -2 6 -13 5 -11 0 -14 -3 -6 -6z"/>
<path d="M2102 484 c-22 -11 -22 -12 -6 -28 19 -20 37 -8 32 21 -3 16 -6 17
-26 7z"/>
<path d="M739 330 c-8 -5 -87 -29 -175 -53 -119 -33 -175 -44 -225 -43 -57 1
-65 -1 -61 -16 8 -33 42 -53 91 -53 42 0 415 99 434 115 8 7 -29 60 -41 60 -4
0 -14 -5 -23 -10z"/>
<path d="M1780 320 c0 -5 5 -10 10 -10 6 0 10 5 10 10 0 6 -4 10 -10 10 -5 0
-10 -4 -10 -10z"/>
<path d="M1800 260 c0 -31 30 -60 63 -60 41 0 77 10 77 20 0 24 -31 37 -76 32
-33 -3 -49 -1 -55 9 -7 12 -9 11 -9 -1z"/>
<path d="M268 33 c7 -3 16 -2 19 1 4 3 -2 6 -13 5 -11 0 -14 -3 -6 -6z"/>
</g>
</svg>
