<?xml version="1.0" standalone="no"?>
<!DOCTYPE svg PUBLIC "-//W3C//DTD SVG 20010904//EN"
 "http://www.w3.org/TR/2001/REC-SVG-20010904/DTD/svg10.dtd">
<svg version="1.0" xmlns="http://www.w3.org/2000/svg"
 width="400.000000pt" height="277.000000pt" viewBox="0 0 400.000000 277.000000"
 preserveAspectRatio="xMidYMid meet">

<g transform="translate(0.000000,277.000000) scale(0.100000,-0.100000)"
fill="#000000" stroke="none">
<path d="M927 1530 c-30 -24 -37 -25 -37 -5 0 8 -7 15 -15 15 -13 0 -15 -23
-15 -150 0 -127 2 -150 15 -150 12 0 15 16 15 88 0 120 12 159 56 180 32 15
38 15 62 1 27 -15 27 -16 30 -142 2 -117 4 -127 21 -127 18 0 20 10 23 115 3
99 6 117 23 135 32 31 79 36 104 11 19 -19 21 -32 21 -141 0 -113 1 -120 20
-120 17 0 20 7 20 53 l1 52 13 -31 c28 -64 103 -96 170 -74 100 33 128 184 51
269 -31 34 -37 36 -93 36 -50 0 -65 -4 -87 -25 -15 -14 -33 -38 -40 -55 l-13
-29 -11 42 c-15 55 -47 76 -102 69 -23 -3 -51 -15 -64 -27 -19 -18 -25 -19
-32 -7 -23 39 -96 49 -136 17z m552 -45 c32 -32 41 -117 16 -164 -31 -61 -111
-73 -157 -24 -32 34 -34 149 -3 183 41 46 101 48 144 5z"/>
<path d="M1644 1540 c-12 -5 -25 -13 -29 -19 -9 -16 -25 -13 -25 4 0 8 -7 15
-15 15 -13 0 -15 -23 -15 -150 0 -127 2 -150 15 -150 12 0 15 17 15 96 0 108
15 154 56 173 38 17 63 13 89 -14 24 -23 25 -30 25 -140 0 -111 1 -115 21
-115 21 0 21 3 17 126 l-4 127 -32 28 c-33 30 -75 37 -118 19z"/>
<path d="M1895 1540 c-79 -32 -106 -171 -50 -256 34 -52 125 -66 179 -28 31
21 35 18 25 -23 -17 -80 -106 -110 -168 -57 -17 14 -38 24 -48 22 -14 -3 -12
-8 13 -37 27 -30 38 -35 89 -39 71 -6 116 15 139 63 23 48 23 355 1 355 -8 0
-15 -9 -15 -20 0 -11 -4 -20 -10 -20 -5 0 -10 4 -10 9 0 14 -65 41 -97 40 -15
0 -37 -4 -48 -9z m104 -35 c42 -21 65 -89 52 -148 -17 -71 -72 -106 -132 -85
-81 28 -91 182 -15 229 37 23 58 24 95 4z"/>
<path d="M2185 1538 c-92 -50 -111 -193 -36 -268 57 -58 160 -44 206 26 l21
31 16 -27 c48 -85 178 -90 227 -9 l19 31 17 -32 c21 -41 74 -64 131 -55 45 6
94 45 94 74 0 9 9 2 20 -17 26 -43 80 -66 134 -57 23 3 48 11 56 18 19 14 50
58 50 69 0 18 -33 6 -56 -21 -31 -37 -65 -45 -108 -27 -36 15 -49 32 -60 79
l-6 27 114 0 c63 0 117 4 121 9 3 6 0 30 -6 55 -15 59 -55 97 -111 103 -84 8
-148 -54 -148 -146 0 -38 -2 -42 -16 -30 -8 7 -50 24 -92 38 -73 25 -77 28
-77 56 0 36 38 61 78 51 27 -6 36 -14 62 -51 21 -30 40 -7 24 29 -40 88 -208
66 -209 -27 l-1 -32 -13 30 c-7 17 -26 41 -41 55 -22 21 -36 25 -87 25 -58 0
-62 -1 -97 -42 l-37 -42 -17 28 c-30 51 -122 77 -172 49z m104 -33 c38 -19 54
-63 49 -130 -7 -89 -63 -130 -136 -99 -57 24 -79 114 -44 184 27 56 78 73 131
45z m290 -20 c32 -32 41 -117 16 -164 -31 -61 -111 -73 -157 -24 -32 34 -34
149 -3 183 41 46 101 48 144 5z m490 8 c17 -16 33 -40 37 -55 l6 -28 -96 0
c-93 0 -96 1 -96 23 0 25 25 59 55 75 33 19 63 14 94 -15z m-323 -113 c70 -15
99 -38 91 -72 -15 -57 -122 -55 -152 2 -9 17 -21 30 -28 30 -8 0 -11 14 -9 44
4 45 4 45 24 26 12 -11 45 -24 74 -30z"/>
</g>
</svg>
