<?xml version="1.0" standalone="no"?>
<!DOCTYPE svg PUBLIC "-//W3C//DTD SVG 20010904//EN"
 "http://www.w3.org/TR/2001/REC-SVG-20010904/DTD/svg10.dtd">
<svg version="1.0" xmlns="http://www.w3.org/2000/svg"
 width="328.000000pt" height="119.000000pt" viewBox="0 0 328.000000 119.000000"
 preserveAspectRatio="xMidYMid meet">

<g transform="translate(0.000000,119.000000) scale(0.100000,-0.100000)"
fill="#000000" stroke="none">
<path d="M10 1160 c0 -31 24 -71 62 -105 l33 -30 -31 35 c-36 40 -54 72 -54
94 0 14 38 16 334 16 l333 0 39 -26 c21 -15 32 -19 24 -10 -36 44 -53 46 -405
46 -331 0 -335 0 -335 -20z"/>
<path d="M1180 1139 c-12 -23 -20 -43 -17 -45 2 -2 12 14 22 36 l18 40 84 0
c45 0 83 -2 83 -5 0 -3 -9 -24 -20 -45 -11 -22 -18 -40 -15 -40 2 0 16 23 30
50 l25 50 -95 0 -95 0 -20 -41z"/>
<path d="M1620 1173 c106 -7 317 -7 307 -1 -7 4 -88 7 -182 6 -93 -1 -150 -3
-125 -5z"/>
<path d="M2260 1173 c51 -3 87 -9 92 -16 5 -8 8 -6 8 6 0 15 -10 17 -92 15
l-93 -2 85 -3z"/>
<path d="M2923 1173 c48 -2 126 -2 175 0 48 1 8 3 -88 3 -96 0 -136 -2 -87 -3z"/>
<path d="M1514 1143 c-23 -15 -47 -36 -54 -47 -10 -16 -6 -15 16 5 16 15 45
36 64 48 19 11 31 21 25 21 -5 0 -29 -12 -51 -27z"/>
<path d="M2773 1141 c-42 -30 -83 -77 -83 -94 0 -5 10 5 23 24 12 19 44 49 71
67 26 17 44 32 39 32 -6 0 -28 -13 -50 -29z"/>
<path d="M3221 1142 c17 -15 34 -43 39 -62 7 -31 8 -32 9 -8 1 27 -50 98 -70
98 -5 0 5 -12 22 -28z"/>
<path d="M1974 1126 c15 -23 26 -53 26 -73 l0 -34 -290 3 c-160 2 -290 0 -290
-4 0 -5 133 -8 295 -8 l295 0 0 35 c0 39 -19 84 -46 105 -9 8 -5 -3 10 -24z"/>
<path d="M2341 1124 c0 -11 3 -14 6 -6 3 7 2 16 -1 19 -3 4 -6 -2 -5 -13z"/>
<path d="M770 1120 c0 -3 9 -23 20 -45 11 -22 20 -33 20 -25 0 8 -9 29 -20 45
-11 17 -20 28 -20 25z"/>
<path d="M2171 1104 c0 -11 3 -14 6 -6 3 7 2 16 -1 19 -3 4 -6 -2 -5 -13z"/>
<path d="M2160 1068 c0 -7 -3 -23 -6 -35 -6 -23 -5 -23 85 -23 50 0 91 3 91 8
0 4 -38 6 -85 4 l-85 -3 6 30 c4 17 4 31 0 31 -3 0 -6 -6 -6 -12z"/>
<path d="M2332 1060 c0 -14 2 -19 5 -12 2 6 2 18 0 25 -3 6 -5 1 -5 -13z"/>
<path d="M1135 1040 l-16 -31 97 3 c69 2 98 7 100 16 1 7 0 8 -3 2 -5 -10
-173 -15 -173 -4 0 3 5 14 10 25 6 10 8 19 6 19 -3 0 -13 -14 -21 -30z"/>
<path d="M3260 1030 c0 -6 -109 -11 -292 -13 l-293 -2 298 -3 c258 -2 297 0
297 13 0 8 -2 15 -5 15 -3 0 -5 -4 -5 -10z"/>
<path d="M485 1020 l-320 -5 323 -3 c209 -1 322 1 322 8 0 6 -1 9 -2 8 -2 -2
-147 -5 -323 -8z"/>
<path d="M230 928 c0 -31 39 -97 70 -120 40 -29 125 -39 326 -36 l189 3 3 88
3 87 -296 0 -295 0 0 -22z"/>
<path d="M1050 870 c-22 -44 -40 -84 -40 -90 0 -6 36 -10 93 -10 l93 0 18 38
c11 20 29 61 42 90 l24 52 -95 0 -95 0 -40 -80z"/>
<path d="M1386 879 c-26 -116 -30 -110 71 -107 l87 3 17 80 c10 44 18 83 18
88 1 4 -39 7 -88 7 l-89 0 -16 -71z"/>
<path d="M1815 928 c-3 -13 -11 -53 -19 -90 l-14 -68 89 0 c100 0 87 -13 113
113 l14 67 -89 0 c-84 0 -89 -1 -94 -22z"/>
<path d="M2116 879 c-26 -115 -30 -109 72 -109 l89 0 20 90 20 90 -92 0 -93 0
-16 -71z"/>
<path d="M2647 872 c-9 -42 -17 -83 -17 -90 0 -10 22 -12 87 -10 l87 3 18 75
c9 41 17 81 18 88 0 9 -24 12 -88 12 l-89 0 -16 -78z"/>
<path d="M3076 933 c-13 -44 -33 -153 -28 -158 3 -3 43 -5 88 -5 94 0 82 -10
104 95 6 28 13 58 16 68 5 15 -4 17 -85 17 -77 0 -90 -3 -95 -17z"/>
<path d="M464 682 c11 -72 87 -142 154 -142 l22 0 0 -270 0 -270 98 0 99 0
123 262 c68 145 142 305 166 356 l43 92 -97 0 -98 0 -68 -147 c-38 -82 -73
-152 -77 -157 -5 -6 -9 58 -9 147 l0 156 -181 3 -181 3 6 -33z"/>
<path d="M1335 638 c-9 -40 -25 -116 -36 -168 -11 -52 -31 -146 -45 -208 -29
-133 -26 -170 22 -217 42 -42 77 -48 261 -43 135 3 141 4 188 33 76 48 101 92
130 230 51 248 86 411 91 428 5 16 -2 18 -87 15 l-93 -3 -17 -75 c-9 -41 -31
-147 -50 -235 -42 -202 -52 -215 -157 -215 -53 0 -75 4 -93 18 l-22 19 27 129
c15 71 39 178 52 239 13 60 24 113 24 117 0 5 -40 8 -89 8 l-89 0 -17 -72z"/>
<path d="M2080 704 c0 -3 -13 -65 -29 -137 -17 -73 -44 -198 -61 -280 l-32
-147 24 -47 c41 -82 55 -88 243 -91 l163 -4 12 59 c6 32 15 75 20 96 l8 37
-113 0 c-100 0 -114 2 -130 20 -18 20 -18 24 -1 108 23 116 75 353 82 375 5
15 -4 17 -90 17 -53 0 -96 -3 -96 -6z"/>
<path d="M2606 688 c-3 -13 -17 -77 -31 -143 -69 -317 -84 -403 -75 -435 27
-96 73 -113 281 -108 147 3 156 4 201 31 93 55 100 71 178 442 22 105 43 200
46 213 6 22 5 22 -84 22 l-91 0 -10 -37 c-11 -44 -51 -228 -77 -356 -23 -117
-45 -137 -145 -137 -57 0 -73 4 -90 21 -15 15 -19 28 -14 47 3 14 17 78 30
141 13 64 33 158 44 208 12 51 21 97 21 103 0 6 -36 10 -90 10 -85 0 -90 -1
-94 -22z"/>
</g>
</svg>
